<?xml version="1.0" encoding="utf-8"?>
<!-- Generator: Adobe Illustrator 22.1.0, SVG Export Plug-In . SVG Version: 6.00 Build 0)  -->
<svg version="1.1" id="Layer_2" xmlns="http://www.w3.org/2000/svg" xmlns:xlink="http://www.w3.org/1999/xlink" x="0px" y="0px"
	 viewBox="0 0 2171.8 386" style="enable-background:new 0 0 2171.8 386;" xml:space="preserve">
<style type="text/css">
	.red{fill:#B20838;}
	.white{fill:white;}
</style>
<path class="white" d="M48.4,76.8l1.2-5.5c0,0,2.4-5.5-10.1-5.5c-12.4,0-14.2-1-19.1,5.5c-5.5,7.5-12.7,11.2-11.9-2.2c0.8-13.4,9-44.5,9-44.5
	s2.3-12,18.2-12c16,0,263.3,0,263.3,0s5.4-0.9,4.9,4.2c-0.5,5.1-1.9,26.2-9.2,44c0,0-2.8,7.4-15.2,7.4c-12.4,0-123.4,0-123.4,0
	s-4.9-0.4-6.6,7.3c-1.7,7.8-40.2,185.2-40.2,185.2s-1.6,4.3,4.6,8.7c0,0,16,12.7-2.6,12.7c-18.5,0-88.2,0-88.2,0S6.5,282.8,8.5,262
	C10.1,244.4,48.4,76.8,48.4,76.8z"/>
<path class="white" d="M210,81.3h75.1c0,0,9.1-1.4,9.7,23.1l13.6-15.8c0,0,4.7-7.4,23.2-7.4h18.5c0,0,8-0.9,8,2.4l-3.3,30.2c0,0-0.1,28.2-31,28.3
	c-30.9,0.1-38,1.3-43.1,23.2c-5.1,21.9-21.8,94.2-21.8,94.2s-2,4.2,6.5,9.4c8.4,5.2,3,13.2-3.7,13.2c-6.7,0-79.5,0-79.5,0
	s-17.4,0-12.2-25.2c5.2-25.1,31.6-153.6,31.6-153.6s2.5-5.2-5.2-9.4C188.7,89.9,190.5,81.3,210,81.3z"/>
<path class="white" d="M493.4,81.2H375.5c0,0-6.6-1.1-9.6,7.2c-3.1,8.6-3,10.9-3.3,16.4c-0.3,6.4-1.9,23,7.8,25.2c0,0,10.4,3.6,31.9,3.5h26.5
	c0,0,7.9-0.7,7.7,7.1c-0.2,7.2-8.6,6.3-8.6,6.3h-40.7c0,0-48-4.1-64.6,38.5c0,0-11.5,28.7-13.5,50.7c-1.9,22,2.3,46.1,35.3,46.1h31
	c0,0,11.4,2.6,31.4-20c0,0,0,20.1,18.5,20.1c4.3,0,10.7,0,17.9,0c23.5,0,56,0,56,0h3.8c6.7,0,12.1-8,3.7-13.2
	c-8.4-5.2-6.5-9.4-6.5-9.4s3.9-16.9,10.5-45.1c0,0,3.6-15.9,3.5-15.9l14.6-69.6C528.8,128.9,540.2,81.2,493.4,81.2z M415.4,224.9
	h-9.9c-8-1.4-3.4-7.6-0.9-21.4c2.4-13,10.5-12.2,10.5-12.2h8.3L415.4,224.9z"/>
<path class="white" d="M618.9,269.2c-8.4-5.2-6.5-9.4-6.5-9.4s0.5-2.1,1.3-5.7l30.7-142.8v0c0.3-1.6,0.6-2.9,0.8-4.1C650.5,82,633.1,82,633.1,82
	s-72.8,0-79.5,0c-6.7,0-12.1,8-3.7,13.2c8.4,5.2,6.5,9.4,6.5,9.4s-0.2,0.7-0.5,2.1l-30.5,141.7c-0.7,3.6-1.4,6.6-1.8,8.8
	c-5.2,25.1,12.2,25.2,12.2,25.2s72.8,0,79.5,0C622,282.4,627.4,274.3,618.9,269.2z"/>
<path class="white" d="M649.6,34.9H579c-2.7,0-5.5,1.5-6.7,4.1c-2.7,5.9-5.8,21.3-5.8,21.3s-4.4,14.9,11.2,14.9h3.4l0,0h60.6c0,0,0,0,0.1,0h1.4
	c2.7-0.1,8.3-0.7,10.1-4.4c2.9-5.8,5.8-21.3,5.8-21.3S663.1,34.9,649.6,34.9z"/>
<path class="white" d="M751.6,32.3c0,0-72.8,0-79.5,0c-6.7,0-12.1,8.1-3.7,13.3c8.4,5.2,6.5,9.4,6.5,9.4s-0.2,0.8-0.5,2.1l-8.3,38.8l0,0
	l-16.9,77.5h-0.1l-3.5,16.2l0,0l0,0L633,248.2c-0.7,3.6-1.4,6.6-1.8,8.9c-5.2,25.2,12.2,25.3,12.2,25.3s72.8,0,79.5,0
	c6.7,0,12.1-8.1,3.7-13.3c-8.4-5.2-6.5-9.4-6.5-9.4s0.5-2.1,1.3-5.8l13.3-62.1l16.9-77.3h0l1.6-7.7l0,0l0,0l9.7-45.2v0
	c0.3-1.6,0.6-2.9,0.8-4.1C769,32.3,751.6,32.3,751.6,32.3z"/>
<path class="white" d="M855.7,78.9c0,0-82.4-0.8-98.3,68.6c-17.2,75.2-38.5,134.8,14.5,134.8c89.3,0,122.1,0,122.1,0s29.5,1.3,36-61.9
	c0,0,1.4-10.6-3.8-12.3c-3.8-1.2-4.3-2.7-9.2,3.3c-9.5,11.8-12,8.3-52.2,8.8c-36.6,0.5-29.6-21.5-29.6-21.5s-0.2-10.2,23.4-10.2
	c25.8-0.1,44.8,0,44.8,0s27.8,1.9,34-13.9c6.2-15.8,10.9-53.1,10.9-53.1S963,72.8,855.7,78.9z M864.7,135.6c0,0-1.9,9-2.9,12.2
	c-0.9,3.1-2.7,3-2.7,3h-11.7c-5.1-0.5,0-13.4,0-13.4s1.8-6.6,10.3-6.6C866.4,130.8,864.7,135.6,864.7,135.6z"/>
<path class="white" d="M1116,81.4c-0.4,0-0.7,0.1-0.7,0.1h-18.5c-18.4,0-23.2,7.4-23.2,7.4l-13.6,15.8c-0.6-24.5-9.7-23.1-9.7-23.1h-75.1
	c-19.6,0-21.4,8.6-13.7,12.7c7.7,4.1,5.2,9.4,5.2,9.4s-26.4,128.4-31.6,153.6c-5.2,25.1,12.2,25.2,12.2,25.2s72.8,0,79.5,0
	c6.7,0,12.1-8,3.7-13.2c-8.4-5.2-6.5-9.4-6.5-9.4s16.8-72.3,21.8-94.2c5.1-21.9,12.2-23,43.1-23.2c4.8,0,8.9-0.7,12.3-1.9L1116,81.4
	z"/>
<path class="red" d="M1568.6,98.3h-117.8c0,0-6.6-1.1-9.6,7.2c-3.1,8.6-3,10.9-3.3,16.4c-0.3,6.4-1.9,23,7.8,25.2
	c0,0,10.4,3.6,31.9,3.5h26.5c0,0,7.9-0.7,7.7,7.1c-0.2,7.2-8.6,6.3-8.6,6.3h-40.7c0,0-48-4.1-64.6,38.5c0,0-11.5,28.7-13.5,50.7
	c-1.9,22,2.3,46.1,35.3,46.1h31c0,0,11.4,2.6,31.4-20c0,0,0,20.1,18.5,20.1c4.3,0,10.7,0,17.9,0c23.5,0,56,0,56,0h3.8
	c6.7,0,12.1-8,3.7-13.2c-8.4-5.2-6.5-9.4-6.5-9.4s3.9-16.9,10.5-45.1c0,0,3.6-15.9,3.5-15.9L1604,146
	C1604,146,1615.4,98.3,1568.6,98.3z M1490.5,242h-9.9c-8-1.4-3.4-7.6-0.9-21.4c2.4-13,10.5-12.2,10.5-12.2h8.3L1490.5,242z"/>
<path class="red" d="M1287,98.4h75.1c0,0,9.1-1.4,9.7,23.1l13.6-15.8c0,0,4.7-7.4,23.2-7.4h18.5c0,0,8-0.9,8,2.4l-3.3,30.2
	c0,0-0.1,28.2-31,28.3c-30.9,0.1-38,1.3-43.1,23.2c-5.1,21.9-21.8,94.2-21.8,94.2s-2,4.2,6.5,9.4c8.4,5.2,3,13.2-3.7,13.2
	c-6.7,0-79.5,0-79.5,0s-17.4,0-12.2-25.2c5.2-25.1,31.6-153.6,31.6-153.6s2.5-5.2-5.2-9.4C1265.6,107,1267.4,98.4,1287,98.4z"/>
<path class="red" d="M2035.7,305.1c-3.8-1.2-4.4-2.8-9.2,3.4c-8.7,11.3-11.8,8.8-47.2,9h-777.4c0,0-26.2,1.5-21.7-23.6
	c4.6-26,41.7-188.9,41.7-188.9s4.3-20.9,20.6-20.9c27.2,0,103.6,0,113.8,0c12.4,0,15.2-7.4,15.2-7.4c7.2-17.8,8.6-38.9,9.2-44
	c0.5-5.1-4.9-4.2-4.9-4.2s-88,0-165.3,0l0-0.1c0,0-68.5-3.4-81.9,43.5l-60.2,243.2c0,0-19,66.4,73.3,66.3c85.5,0,736.1,0,832.7,0
	c0,0,0,0,0,0c5,0,9.3,0,12.9,0c0.9,0,2.3,0.1,4.1,0c8.5,0,12.3,0,12.3,0s29.5,1.3,36-63.8C2039.5,317.8,2040.9,306.8,2035.7,305.1z"
	/>
<path class="red" d="M1766,52.2c0,0-39.5,0-81.2,0c-43.4,0-44.7,39.3-44.7,39.3s-1.8,15-10,14.8c-9.3-0.3-10.3,8.6-10.3,8.6
	l-6.4,27.3c-2.7,11.3,1.6,9.9,7.9,9.9c3.6,0,4.5,2,3.8,5.9l-1,4.3l-0.2,0.8l0,0l-5.9,27.1h-0.1l-3.5,16.2l0,0l-12.6,58.6
	c-0.7,3.6-1.4,6.6-1.8,8.9c-5.2,25.2,12.2,25.3,12.2,25.3s72.8,0,79.5,0c6.7,0,12.1-8.1,3.7-13.3c-8.4-5.2-6.5-9.4-6.5-9.4
	s0.5-2.1,1.3-5.8l13.3-62.1l10.8-49.4c0.1-1,0.1-1,0.1-1c1.6-5.3-1.3-6.9,13.3-6.5c16.9,0.5,19.1-8.7,19.1-8.7s8.2-28.7,8.8-36.2
	c0.7-7.5-5.7-6.8-5.7-6.8h-19.3c-4.1,0-4.2-1.8-4.2-5c-0.1-3.2,3.5-3.7,3.5-3.7s13.9,0,23.9,0s12.1-7.3,12.1-7.3s4.5-17.7,6-25.4
	C1773.7,51,1766,52.2,1766,52.2z"/>
<path class="red" d="M1909.4,99.4c-11.7,0-28.8,0-28.8,0s-10.3,2.2-8-10.4s3.8-20.2,3.8-20.2s1.1-5.5-5.4-5.5s-32.5,0-32.5,0
	s-2.7-0.6-4.9,2.6c-2.2,3.2-27.1,40.3-66.8,40.3c0,0-4-0.9-5.3,3.3c-1.3,4.2-8.5,34.5-8.5,34.5s-2.7,4.5,3.9,4.9
	c6.6,0.3,12.2-0.3,10.6,5.6l-23.8,115.6c0,0-10.4,29.3,23.8,29.3h95.5c0.7,0,1.7,0,2.9,0h11.3l2.1-0.3c6.5-1.5,23.9-9.9,28.4-57.9
	c0,0,1.2-10-3.2-11.5c-3.3-1.1-3.7-2.6-7.9,3.1c-7.5,10.3-10.1,8.1-40.5,8.2h-9.7c-2.2-1-4.1-3.8-2.4-10.8c3.3-14,17.1-72,17.1-72
	s1.5-9.1,15.5-8.7c14.8,0.4,30,0,32.6-9.2c3.4-11.7,8.4-33.2,8.4-33.2S1921.1,99.4,1909.4,99.4z"/>
<path class="white" d="M1972.7,8.6c-3.2-2.6-6.9-3-8.3-3h-0.5c0,0-0.1,0-0.1,0l0,0H1897l0,0c0,0,0,0,0,0h-3.5c-4.2,0.2-10,1.6-4.2,7.4l85.1,85.8
	l-83.1,88l0.1,0c-6.1,6.1,0.3,7.3,4.6,7.5h2.8c0.2,0,0.4,0,0.4,0l-0.1,0h65.9c1.6,0,5.8-0.5,9.2-3.9l89.6-91.6L1972.7,8.6z"/>
<path class="white" d="M2165.6,98.8l-90.5-90.4c-3.2-2.5-6.7-2.8-8.1-2.9h-0.5c0,0-0.1,0-0.1,0l0,0H1996c-4.2,0.2-10,1.6-4.1,7.5l85,85.7l-83.1,88
	l0,0c-6.1,6.1,0.3,7.3,4.6,7.5h2.8c0.2,0,0.4,0,0.4,0l-0.1,0h65.4l0,0c0,0,5.5,0.3,9.8-3.9v0L2165.6,98.8z"/>
<g>
	<path class="red" d="M654.1,326.4c-0.4,1.4-0.9,2.3-1.6,2.8c-0.7,0.5-1.8,0.8-3.4,0.8h-7.4c-2.4,0-4.3,0.3-5.7,1
		c-1.4,0.7-2.1,2.1-2.1,4.3c0,0.8,0.1,1.4,0.3,1.8c0.2,0.4,0.6,0.8,1.2,1.2c0.5,0.4,1.5,0.9,3,1.6l6,3c5.1,2.3,7.6,5.5,7.6,9.6
		c0,1.6-0.3,3.9-1,6.9c-0.6,3-1.4,5.7-2.2,8c-0.7,2.1-1.7,4-3.1,5.7c-1.4,1.6-2.9,2.9-4.6,3.7c-1.4,0.6-2.7,1-3.9,1.2
		c-1.2,0.2-3.1,0.3-5.5,0.3h-17.1c-1.8,0-3.4-0.2-4.6-0.7c-1.2-0.4-1.8-1.4-1.8-3c0-0.5,0.1-1.3,0.3-2.5l2.2-10.1h2.1
		c0.1,1,0.3,1.7,0.6,2.2c0.3,0.5,0.9,0.8,1.7,1c0.8,0.2,2,0.3,3.5,0.3h7.9c2.5,0,4.5-0.4,6-1.2c1.5-0.8,2.3-2.4,2.3-4.7
		c0-1.1-0.4-2-1.1-2.6c-0.7-0.7-2.4-1.6-4.9-2.9l-4.8-2.3c-5.1-2.1-7.7-5.2-7.7-9.2c0-4.1,0.7-8.3,2.1-12.5c1.4-4.2,3.5-7.3,6.3-9.3
		c1.2-0.9,2.3-1.5,3.5-1.7c1.2-0.3,3.2-0.4,6.1-0.4h21.6L654.1,326.4z"/>
	<path class="red" d="M674.7,370.9c-0.2,0.9-0.3,1.6-0.3,1.9c0,1.2,0.8,2.1,2.5,2.6l-0.5,2.1h-16.7c-2.7,0-4.1-1-4.1-3.1
		c0-0.7,0.2-1.7,0.5-2.8l9.9-44.4c0.3-1.2,0.5-2.3,0.5-3.1c0-1.8-0.9-3-2.6-3.4l0.5-2.2H681c3,0,4.6,1.1,4.6,3.3
		c0,0.6-0.1,1.2-0.3,1.9L674.7,370.9z"/>
	<path class="red" d="M730.3,377.6h-11.6c-1.5,0-2.5-0.1-3-0.4c-0.5-0.3-0.9-1.1-1.4-2.3l-9.9-27l-5.3,23.1
		c-0.2,0.6-0.2,1.2-0.2,1.7c0,1.4,0.9,2.4,2.7,2.9l-0.6,2.1h-13.9c-2.7,0-4.1-1.1-4.1-3.3c0-0.8,0.2-1.8,0.5-2.8l9.9-44.3
		c0.4-1.7,0.5-2.8,0.5-3.3c0-1.7-0.8-2.7-2.5-3.1l0.7-2.2H710c1.2,0,2,0.2,2.5,0.5c0.5,0.3,0.9,1.1,1.3,2.1l8.5,23.3l4.5-20.5
		c0-1.7-0.9-2.8-2.6-3.2l0.6-2.2h14.1c2.7,0,4.1,1.1,4.1,3.4c0,0.3-0.1,0.8-0.2,1.5L730.3,377.6z"/>
	<path class="red" d="M791.7,318.6l-1.8,7.8c-0.3,1.6-0.9,2.7-1.7,3.2c-0.8,0.6-2.1,0.8-3.9,0.8H778c-2.2,0-3.7,0.1-4.5,0.3
		c-0.8,0.2-1.6,0.6-2.2,1.2c-1.4,1.5-2.4,3.9-3.3,7.3c-0.2,0.8-0.8,2.8-1.7,6.1c-0.9,3.2-1.6,5.9-2,8s-0.6,4.2-0.6,6.3
		c0,2.3,0.7,3.9,2,4.6c1.3,0.7,3.2,1.1,5.6,1.1h5.5c2.6,0,4.3-0.2,5.2-0.6c0.9-0.4,1.7-1.3,2.3-2.8h2.5l-2.5,9.9
		c-0.6,2.7-2,4.5-4.1,5.4c-2.2,0.9-4.9,1.4-8.3,1.4l-4.3-0.1l-8.4-0.2c-5.1-0.2-8.6-0.9-10.6-2.4c-2.9-1.9-4.3-5.4-4.3-10.4
		c0-3.7,0.3-7.6,1-11.7c0.6-4,1.5-8.1,2.6-12.1c1.1-4,2.4-7.9,3.8-11.5c2.2-5.5,5.2-9,8.8-10.4c2.3-0.9,5.6-1.3,9.9-1.3H791.7z"/>
	<path class="red" d="M820.3,330l-2,9.9h17l-1.4,6.5c-0.5,2.1-1.1,3.6-1.9,4.2c-0.8,0.7-2.1,1-4.1,1l-12.6,0l-3.1,13.6h13.9
		c2.3,0,3.8-0.2,4.6-0.6c0.7-0.4,1.4-1.4,2-2.9h2.3l-2.3,10.9c-0.4,1.5-0.8,2.6-1.2,3.2c-0.4,0.7-1,1.1-1.7,1.3
		c-0.8,0.2-1.9,0.3-3.5,0.3h-30.6c-2.5,0-3.7-1.1-3.7-3.4c0-0.6,0.1-1.4,0.2-2.2l10.6-47.9c0-1.8-0.9-2.9-2.6-3.3l0.5-2.2h40.5
		l-1.3,6.2c-0.5,2.1-1.3,3.5-2.2,4.1c-1,0.7-2.6,1-4.8,1H820.3z"/>
	<path class="red" d="M867.6,318.6h18.3c3.3,0,5,1.2,5,3.5c0,0.4-0.1,0.8-0.2,1.4L880,370c-0.3,1-0.4,1.9-0.4,2.5c0,1.5,1,2.5,2.9,3
		l-0.8,2.1h-16.4c-1.4,0-2.4-0.3-3-0.8c-0.6-0.5-0.8-1.3-0.8-2.3c0-0.4,0.1-1.2,0.3-2.4l8.6-37.3c0.2-0.7,0.3-1.5,0.3-2.1
		c0-1-0.2-1.7-0.6-2c-0.4-0.3-1.2-0.4-2.2-0.4c-1.5-0.2-2.3-1.2-2.3-2.9L867.6,318.6z"/>
	<path class="red" d="M908.8,357.1c-2.2,0-3.9-0.1-5.1-0.4c-1.2-0.3-2.3-0.8-3.3-1.5c-2.6-2-3.8-5.1-3.8-9.1c0-2.5,0.7-6.2,2.1-11.1
		c1.2-4.4,2.7-7.8,4.6-10.2c1.9-2.4,4.5-4.1,7.8-5.1c3.3-1,7.6-1.5,12.9-1.5c4.8,0,8.7,0.5,11.6,1.5c2.9,1,5,2.5,6.3,4.6
		c1.3,2.1,2,4.9,2,8.4c0,8.2-2.1,18.7-6.4,31.6c-1.2,3.6-2.5,6.4-3.9,8.3c-1.3,1.9-3,3.3-4.9,4.1c-1.9,0.8-4.5,1.2-7.6,1.2h-22.3
		c-1.5,0-2.6-0.1-3.5-0.4c-0.8-0.3-1.3-1-1.3-2.2c0-0.7,0.2-1.6,0.5-2.8l2.4-10.4h2.4c0.1,1.4,0.4,2.4,1.1,2.8
		c0.6,0.5,1.9,0.7,3.9,0.7h8.6c2.4,0,4-0.2,5-0.7c1-0.5,1.8-1.4,2.6-2.8c0.4-0.8,1-2.4,1.8-4.7H908.8z M926.8,336.3
		c0-4-1.7-6.1-5-6.1c-2.8,0-4.8,1.1-6.2,3.4c-1.4,2.3-2.1,4.9-2.1,8c0,1.7,0.5,2.8,1.5,3.4c1,0.6,2.5,0.9,4.3,0.9h5.6
		C926.2,341.5,926.8,338.3,926.8,336.3z"/>
	<path class="red" d="M996.9,318.6l-1.7,7.4c-0.4,1.7-1,2.9-1.8,3.5c-0.7,0.6-2,0.9-3.7,0.9l-10,0c-3.1,0-5.5,0.7-7.2,2.1
		c-1.7,1.4-3,3.6-4.1,6.7h10.6c4.6,0,8,0.4,10.1,1.2c1.4,0.6,2.5,1.8,3.3,3.5c0.8,1.7,1.2,3.7,1.2,6.1c0,3.4-0.6,7.4-1.8,12
		c-0.8,3-1.9,5.5-3.2,7.5c-1.3,2-2.9,3.7-4.9,4.9c-1.9,1.3-4.3,2.2-7,2.8c-2.7,0.6-5.9,0.9-9.5,0.9c-3.8,0-7-0.3-9.6-0.8
		c-2.6-0.6-4.7-1.5-6.4-2.7c-1.6-1.2-2.8-2.7-3.6-4.6c-0.8-1.9-1.2-4.2-1.2-6.8c0-4.2,0.5-8.5,1.5-12.9c1-4.4,2.4-9.1,4.2-14
		c2.5-7.7,6.4-12.9,11.6-15.7c1.5-0.8,3-1.4,4.5-1.7c1.5-0.3,3.6-0.4,6.3-0.4H996.9z M965.5,350.6c-0.1,0.6-0.3,1.5-0.6,2.7
		c-0.3,1.2-0.5,2.5-0.7,3.8c-0.2,1.3-0.3,2.4-0.3,3.2c0,3.7,1.6,5.6,4.7,5.6c2.8,0,5-1.1,6.4-3.3c1.5-2.2,2.2-4.8,2.2-7.8
		c0-1.6-0.4-2.7-1.3-3.3c-0.9-0.6-2.5-0.9-4.8-0.9H965.5z"/>
	<path class="red" d="M1013.6,357.1c-2.2,0-3.9-0.1-5.1-0.4c-1.2-0.3-2.3-0.8-3.3-1.5c-2.6-2-3.8-5.1-3.8-9.1
		c0-2.5,0.7-6.2,2.1-11.1c1.2-4.4,2.7-7.8,4.6-10.2c1.9-2.4,4.5-4.1,7.8-5.1c3.3-1,7.6-1.5,12.9-1.5c4.8,0,8.7,0.5,11.6,1.5
		c2.9,1,5,2.5,6.3,4.6c1.3,2.1,2,4.9,2,8.4c0,8.2-2.1,18.7-6.4,31.6c-1.2,3.6-2.5,6.4-3.9,8.3c-1.3,1.9-3,3.3-4.9,4.1
		c-1.9,0.8-4.5,1.2-7.6,1.2h-22.3c-1.5,0-2.6-0.1-3.5-0.4c-0.8-0.3-1.3-1-1.3-2.2c0-0.7,0.2-1.6,0.5-2.8l2.4-10.4h2.4
		c0.1,1.4,0.4,2.4,1.1,2.8c0.6,0.5,1.9,0.7,3.9,0.7h8.6c2.4,0,4-0.2,5-0.7c1-0.5,1.8-1.4,2.6-2.8c0.4-0.8,1-2.4,1.8-4.7H1013.6z
		 M1031.5,336.3c0-4-1.7-6.1-5-6.1c-2.8,0-4.8,1.1-6.2,3.4c-1.4,2.3-2.1,4.9-2.1,8c0,1.7,0.5,2.8,1.5,3.4c1,0.6,2.5,0.9,4.3,0.9h5.6
		C1030.9,341.5,1031.5,338.3,1031.5,336.3z"/>
</g>
<g>
	<path class="red" d="M1937.4,272.6c-0.2,0.9-0.3,1.5-0.3,1.8c0,1.2,0.8,2.1,2.4,2.6l-0.5,2.1h-16.3c-2.6,0-4-1-4-3.1
		c0-0.7,0.1-1.6,0.4-2.7l9.7-43.3c0.3-1.2,0.5-2.2,0.5-3c0-1.8-0.8-2.9-2.5-3.3l0.5-2.1h16.2c3,0,4.5,1.1,4.5,3.2
		c0,0.6-0.1,1.2-0.3,1.8L1937.4,272.6z"/>
	<path class="red" d="M1994.1,279.1h-11.3c-1.5,0-2.5-0.1-2.9-0.4c-0.5-0.3-0.9-1-1.4-2.3l-9.7-26.3l-5.2,22.5
		c-0.1,0.6-0.2,1.2-0.2,1.6c0,1.4,0.9,2.3,2.6,2.8l-0.6,2.1H1952c-2.7,0-4-1.1-4-3.2c0-0.8,0.1-1.7,0.4-2.7l9.7-43.2
		c0.3-1.6,0.5-2.7,0.5-3.2c0-1.6-0.8-2.7-2.5-3.1l0.6-2.1h17.5c1.1,0,2,0.2,2.4,0.5c0.5,0.3,0.9,1,1.3,2.1l8.3,22.7l4.4-20
		c0-1.7-0.8-2.7-2.5-3.1l0.6-2.1h13.7c2.6,0,4,1.1,4,3.3c0,0.2,0,0.7-0.1,1.5L1994.1,279.1z"/>
	<path class="red" d="M2056.5,221.7l-1.8,7.6c-0.3,1.5-0.9,2.6-1.7,3.1c-0.8,0.5-2.1,0.8-3.8,0.8h-6.1c-2.1,0-3.6,0.1-4.4,0.3
		c-0.8,0.2-1.5,0.6-2.2,1.2c-1.3,1.4-2.4,3.8-3.2,7.1c-0.2,0.8-0.7,2.8-1.6,5.9c-0.9,3.1-1.6,5.7-2,7.8c-0.4,2.1-0.6,4.1-0.6,6.2
		c0,2.3,0.6,3.8,1.9,4.5c1.3,0.7,3.1,1,5.5,1h5.3c2.5,0,4.2-0.2,5.1-0.6c0.9-0.4,1.6-1.3,2.2-2.7h2.5l-2.5,9.7
		c-0.6,2.6-1.9,4.4-4,5.3c-2.1,0.9-4.8,1.3-8.1,1.3l-4.2-0.1l-8.2-0.1c-5-0.1-8.4-0.9-10.3-2.3c-2.8-1.9-4.2-5.3-4.2-10.1
		c0-3.6,0.3-7.4,0.9-11.4c0.6-3.9,1.5-7.9,2.6-11.8c1.1-3.9,2.3-7.7,3.7-11.2c2.2-5.4,5-8.8,8.6-10.1c2.2-0.9,5.4-1.3,9.7-1.3
		H2056.5z"/>
</g>
</svg>
